<?xml version="1.0" encoding="UTF-8" standalone="no"?>
<!-- Created with Inkscape (http://www.inkscape.org/) -->

<svg
   version="1.1"
   id="svg1"
   width="512"
   height="512"
   viewBox="0 0 512 512"
   sodipodi:docname="berjhfv43tmrjhgfv43u3.svg"
   inkscape:version="1.4.2 (f4327f4, 2025-05-13)"
   inkscape:export-filename="C:\Users\user\Desktop\berjhfv43tmrjhgfv43u3.png"
   inkscape:export-xdpi="96"
   inkscape:export-ydpi="96"
   xmlns:inkscape="http://www.inkscape.org/namespaces/inkscape"
   xmlns:sodipodi="http://sodipodi.sourceforge.net/DTD/sodipodi-0.dtd"
   xmlns:xlink="http://www.w3.org/1999/xlink"
   xmlns="http://www.w3.org/2000/svg"
   xmlns:svg="http://www.w3.org/2000/svg">
  <defs
     id="defs1">
    <rect
       x="234.83589"
       y="336.93845"
       width="255.2564"
       height="122.52307"
       id="rect7" />
    <linearGradient
       id="linearGradient6"
       inkscape:collect="always">
      <stop
         style="stop-color:#0fff09;stop-opacity:1;"
         offset="0"
         id="stop6" />
      <stop
         style="stop-color:#ff0909;stop-opacity:0;"
         offset="1"
         id="stop7" />
    </linearGradient>
    <rect
       x="85.936323"
       y="69.770084"
       width="303.75512"
       height="124.22478"
       id="rect5" />
    <rect
       x="182.90011"
       y="110.10106"
       width="251.48766"
       height="197.3396"
       id="rect3" />
    <rect
       x="148.60634"
       y="116.11751"
       width="252.0893"
       height="141.98825"
       id="rect1" />
    <rect
       x="92.653349"
       y="163.04583"
       width="160.0376"
       height="190.7215"
       id="rect9" />
    <rect
       x="269.53702"
       y="212.38073"
       width="203.35605"
       height="114.91422"
       id="rect8" />
    <linearGradient
       inkscape:collect="always"
       xlink:href="#linearGradient6"
       id="linearGradient7"
       x1="104.2521"
       y1="90.332997"
       x2="397.50164"
       y2="90.332997"
       gradientUnits="userSpaceOnUse"
       gradientTransform="matrix(3.8881369,0,0,3.8881369,-396.3775,-312.61198)" />
  </defs>
  <sodipodi:namedview
     id="namedview1"
     pagecolor="#ffffff"
     bordercolor="#000000"
     borderopacity="0.25"
     inkscape:showpageshadow="2"
     inkscape:pageopacity="0.0"
     inkscape:pagecheckerboard="0"
     inkscape:deskcolor="#d1d1d1"
     inkscape:zoom="1.1752888"
     inkscape:cx="247.59871"
     inkscape:cy="-172.29807"
     inkscape:window-width="1920"
     inkscape:window-height="1111"
     inkscape:window-x="-9"
     inkscape:window-y="-9"
     inkscape:window-maximized="1"
     inkscape:current-layer="g2" />
  <g
     inkscape:groupmode="layer"
     inkscape:label="Image"
     id="g1">
    <g
       id="g2"
       transform="translate(0.09714763,0.89361226)">
      <path
         style="fill:#01602f;stroke-width:0.78151;fill-opacity:1"
         d="M 149.70382,361.66706 C 108.9722,357.01531 79.407098,339.0546 76.924462,317.45381 74.305394,294.66601 103.2763,274.3528 147.02379,268.30302 c 8.9731,-1.24087 10.60472,-1.27422 62.332,-1.27422 h 53.11768 l 0.27714,47.74882 0.27712,47.74883 -53.39481,-0.0566 c -39.96193,-0.0423 -55.03871,-0.24431 -59.9291,-0.80282 z"
         id="path3"
         inkscape:label="path3" />
      <path
         style="fill:#00ce7e;stroke-width:0.578557"
         d="m 185.16742,257.32483 c -19.02197,-3.19365 -34.66937,-16.36103 -40.3389,-33.94542 -1.43542,-4.45204 -1.62575,-5.96901 -1.65255,-13.17155 -0.0231,-6.19654 0.22679,-9.01094 1.04644,-11.78769 5.14804,-17.44026 18.72891,-30.22783 37.04122,-34.87752 4.56258,-1.15848 6.04095,-1.21382 33.98677,-1.27204 l 29.21669,-0.0609 -0.0151,26.9463 c -0.0145,25.86527 -0.0676,27.14244 -1.32463,31.83551 -4.71073,17.58762 -18.81755,31.07759 -37.11899,35.49587 -4.66162,1.12541 -16.33246,1.59433 -20.84097,0.83739 z"
         id="path2" />
      <path
         style="fill:#58fd58;stroke-width:1.01454;fill-opacity:1"
         d="m 152.19757,476.31065 c -39.61216,-3.50316 -72.152229,-15.90747 -89.208338,-34.00631 -9.139883,-9.69867 -11.339719,-14.78058 -11.339719,-26.19617 0,-11.41559 2.199836,-16.4975 11.339719,-26.19616 13.329897,-14.14483 35.734513,-24.76272 64.351458,-30.49714 20.63792,-4.13555 24.71887,-4.31146 100.02102,-4.31146 h 68.74523 l -8.3e-4,61.18419 -8.3e-4,61.18419 H 230.7163 c -53.87406,0 -67.70106,-0.20447 -78.51855,-1.16114 z"
         id="path8" />
      <text
         xml:space="preserve"
         transform="translate(-0.09714763,-0.89361226)"
         id="text8"
         style="text-align:start;writing-mode:lr-tb;direction:ltr;white-space:pre;shape-inside:url(#rect8);display:inline;fill:#000000" />
      <text
         xml:space="preserve"
         transform="matrix(8.7755419,0,0,0.46809827,-790.927,159.92672)"
         id="text9"
         style="font-size:74.6667px;text-align:start;writing-mode:lr-tb;direction:ltr;white-space:pre;shape-inside:url(#rect9);display:inline;fill:#000000;fill-opacity:1"><tspan
           x="92.654297"
           y="231.16562"
           id="tspan9"><tspan
             style="font-family:'Segoe Print';-inkscape-font-specification:'Segoe Print'"
             id="tspan8">x</tspan></tspan></text>
      <text
         xml:space="preserve"
         transform="translate(-0.09714763,-0.89361226)"
         id="text3"
         style="font-size:74.6667px;font-family:'Segoe Print';-inkscape-font-specification:'Segoe Print';text-align:start;writing-mode:lr-tb;direction:ltr;white-space:pre;shape-inside:url(#rect3);fill:#000000"><tspan
           x="182.90039"
           y="371.49495"
           id="tspan11"><tspan
             dx="0 38.828144 31.682308 35.000015 42.218765 38.82814 31.682312 45.536469 49.510468 31.682281"
             id="tspan10">estoesunsg</tspan></tspan></text>
      <path
         style="fill:#fefefe;stroke-width:0.281723"
         d="m 107.20769,404.04871 v -60.30342 l 27.03876,0.0275 c 16.75235,0.0171 26.36422,0.1061 25.26567,0.23404 -8.03674,0.93603 -15.5576,4.64508 -19.95398,9.84069 -3.4659,4.09597 -4.6412,9.71375 -3.04351,14.54758 2.64028,7.98822 12.48565,14.3235 23.86033,15.3536 l 1.92104,0.17397 -2.77233,0.39511 c -11.08267,1.57948 -19.68148,7.26461 -22.53926,14.90191 -0.85904,2.29577 -0.85904,7.36221 0,9.65797 2.91064,7.77855 11.71566,13.47822 23.12154,14.96702 2.36205,0.30832 2.83972,0.42362 1.82279,0.43999 -2.10516,0.0339 -6.4255,0.87824 -9.20538,1.79906 -7.7533,2.56823 -13.35409,7.30106 -15.73856,13.29954 -0.46317,1.16514 -0.60435,2.34609 -0.59132,4.94621 0.0151,3.02224 0.12269,3.65878 0.93382,5.52689 3.20365,7.3784 12.21174,13.001 22.79453,14.22769 1.17978,0.13675 -7.95925,0.22282 -25.53845,0.2405 l -27.37569,0.0275 z m 62.83774,59.95393 c 11.20355,-1.45824 19.83635,-7.1439 22.81541,-15.02649 0.71866,-1.90158 0.7349,-2.31299 0.87171,-22.07809 0.12778,-18.46101 0.18071,-20.00291 0.63476,-18.49148 2.02483,6.74012 9.61589,12.54189 19.31076,14.759 3.99857,0.91443 10.40123,1.18205 14.32516,0.59877 13.57748,-2.01825 23.07426,-10.1327 23.07426,-19.71564 0,-10.0114 -10.29253,-18.34051 -24.5906,-19.89966 -2.03711,-0.22214 -2.46964,-0.3195 -1.49127,-0.3357 2.10729,-0.0349 6.42729,-0.87947 9.20538,-1.79969 7.7533,-2.56823 13.35409,-7.30106 15.73856,-13.29954 1.00188,-2.52036 0.83822,-7.7543 -0.32627,-10.43396 -3.2987,-7.59081 -12.0127,-12.98876 -23.07483,-14.29385 -0.86525,-0.10209 10.74588,-0.19807 25.80252,-0.21331 l 27.37569,-0.0277 v 60.30342 60.30343 l -56.01488,-0.0213 c -47.07831,-0.0179 -55.6386,-0.0702 -53.65636,-0.32823 z m 23.78115,-71.31971 -0.0275,-8.65684 12.38224,0.0258 c 8.04036,0.0168 11.85829,0.0977 10.88805,0.23071 -11.11125,1.52366 -20.38983,7.81868 -22.71104,15.40824 -0.4829,1.57891 -0.50548,1.28135 -0.53178,-7.00792 z"
         id="path7" />
      <path
         d="m 439.53244,309.24043 c 0.1231,-12.45846 -11.27182,-22.64694 -25.45129,-22.75667 l -36.83397,-32.93422 52.55045,0.40451 c 9.93934,8.88703 26.19594,9.01117 36.31064,0.2782 10.1147,-8.73295 10.25862,-23.01715 0.31928,-31.90417 -9.94023,-8.88781 -26.19771,-9.01116 -36.31241,-0.27821 l -52.55133,-0.40374 37.48472,-32.36403 c 14.18036,0.10895 25.77632,-9.90292 25.90029,-22.36213 0.12401,-12.46076 -11.27091,-22.64925 -25.45214,-22.75744 -14.18126,-0.10817 -25.77721,9.90369 -25.90032,22.36214 l -37.48471,32.36402 0.46127,-46.17291 c 10.11382,-8.73219 10.25597,-23.01639 0.31663,-31.90342 -9.93934,-8.88703 -26.1968,-9.01194 -36.31061,-0.27975 -10.11559,8.73373 -10.25775,23.01794 -0.31928,31.90419 l -0.45775,46.17293 -36.83486,-32.935 c 0.12313,-12.46 -11.27269,-22.64773 -25.45303,-22.75822 -14.18037,-0.10739 -25.77633,9.90447 -25.90209,22.36366 -0.12223,12.45923 11.27269,22.64773 25.45303,22.75823 l 36.83311,32.93344 -52.54782,-0.40372 c -9.93935,-8.88702 -26.19592,-9.01269 -36.31062,-0.27974 -10.11559,8.73373 -10.25774,23.01794 -0.31927,31.90417 9.94021,8.88782 26.19768,9.01271 36.31238,0.27978 l 52.55048,0.40294 -37.48384,32.36325 c -14.18035,-0.10895 -25.7772,9.9037 -25.9012,22.36291 -0.12312,12.46 11.27181,22.64848 25.45303,22.75822 14.18038,0.10737 25.77634,-9.90448 25.9021,-22.36367 l 37.48293,-32.36249 -0.46038,46.17212 c -10.1147,8.73297 -10.25684,23.01563 -0.3175,31.90265 9.94022,8.88782 26.19679,9.0135 36.31149,0.28053 10.11559,-8.73372 10.25685,-23.01717 0.31751,-31.90417 l 0.45864,-46.17373 36.83486,32.93502 c -0.12401,12.46076 11.27092,22.64924 25.45129,22.75665 14.18121,0.10972 25.77807,-9.90291 25.90119,-22.3629"
         fill="#ffb13b"
         id="path2-8"
         style="stroke-width:1.16775" />
      <text
         xml:space="preserve"
         style="font-style:normal;font-variant:normal;font-weight:normal;font-stretch:normal;font-size:79.2282px;font-family:'Comic Sans MS';-inkscape-font-specification:'Comic Sans MS';text-align:start;writing-mode:lr-tb;direction:ltr;text-anchor:start;fill:#000000;stroke-width:1.06109"
         x="209.6422"
         y="114.71376"
         id="text4"
         transform="scale(0.45237902,2.2105358)"><tspan
           sodipodi:role="line"
           id="tspan4"
           x="209.6422"
           y="114.71376"
           style="fill:#ff0909;fill-opacity:1;stroke:#000000;stroke-width:1.06109;stroke-opacity:1">estoesunsvg</tspan></text>
      <text
         xml:space="preserve"
         transform="translate(-0.09714763,-0.89361226)"
         id="text5"
         style="font-style:normal;font-variant:normal;font-weight:normal;font-stretch:normal;font-size:21.33333333px;font-family:'Comic Sans MS';-inkscape-font-specification:'Comic Sans MS';text-align:start;writing-mode:lr-tb;direction:ltr;white-space:pre;shape-inside:url(#rect5);fill:#ff0909;fill-opacity:1;stroke:#000000;stroke-opacity:1" />
      <text
         xml:space="preserve"
         style="font-style:normal;font-variant:normal;font-weight:normal;font-stretch:normal;font-size:82.9467px;font-family:'Comic Sans MS';-inkscape-font-specification:'Comic Sans MS';text-align:start;writing-mode:lr-tb;direction:ltr;text-anchor:start;fill:url(#linearGradient7);stroke:#000000;stroke-width:3.88814;stroke-opacity:1"
         x="3.541748"
         y="61.052826"
         id="text6"
         transform="scale(0.4530805,2.2071133)"><tspan
           sodipodi:role="line"
           id="tspan6"
           x="3.541748"
           y="61.052826"
           style="font-style:normal;font-variant:normal;font-weight:normal;font-stretch:normal;font-family:'MV Boli';-inkscape-font-specification:'MV Boli';fill:url(#linearGradient7);fill-opacity:1;stroke-width:3.88814">el diseño grafico es mi pasion</tspan></text>
      <text
         xml:space="preserve"
         transform="translate(2.4554164,102.91066)"
         id="text7"
         style="font-style:normal;font-variant:normal;font-weight:normal;font-stretch:normal;font-size:21.3333px;font-family:MingLiU_HKSCS-ExtB;-inkscape-font-specification:MingLiU_HKSCS-ExtB;text-align:start;writing-mode:lr-tb;direction:ltr;white-space:pre;shape-inside:url(#rect7);fill:#0919ff;fill-opacity:1;stroke:#000000;stroke-opacity:1"><tspan
           x="234.83594"
           y="356.68747"
           id="tspan12">figma punto com buscar</tspan></text>
    </g>
  </g>
</svg>
